<?xml version="1.0" encoding="UTF-8"?>
<svg id="svg132" width="294.4" height="159.71" version="1.1" xmlns="http://www.w3.org/2000/svg" xmlns:cc="http://creativecommons.org/ns#" xmlns:dc="http://purl.org/dc/elements/1.1/" xmlns:rdf="http://www.w3.org/1999/02/22-rdf-syntax-ns#"><metadata id="metadata20"><rdf:RDF><cc:Work rdf:about=""><dc:format>SVG</dc:format><dc:type rdf:resource="http://purl.org/dc/dcmitype/StillImage"/><dc:title/></cc:Work></rdf:RDF></metadata><defs id="defs12"><style id="style10">
path {
      fill: #000;
   }
   @media (prefers-color-scheme: dark) {
     path {
       fill: lightgrey;
     }
   }</style></defs><path id="path14" d="m6.0406 58.613c-8.669 10.368-7.5608 26.933 0.47693 47.43 81.899-10.249 183.88-19.663 189.69-0.59585 3.9628 13.109-40.189 32.057-35.069 45.344 3.5069 9.1761 28.89 11.142 49.096 6.4948 20.824-4.8264 34.038-17.995 56.11-38.909 17.436-16.505 27.83-26.039 28.055-38.85 0.24552-13.943-10.044-27.111-35.069-45.404-17.324-12.632-59.715-41.531-70.137-32.355-9.2231 8.1036 17.829 36.347 7.0137 51.839-22.156 31.64-159.49-31.997-190.16 4.7668z" stroke-width="6.2827"/></svg>
